<?xml version="1.0" standalone="no"?>
<!DOCTYPE svg PUBLIC "-//W3C//DTD SVG 20010904//EN"
 "http://www.w3.org/TR/2001/REC-SVG-20010904/DTD/svg10.dtd">
<svg version="1.0" xmlns="http://www.w3.org/2000/svg"
 width="700.000000pt" height="490.000000pt" viewBox="0 0 700.000000 490.000000"
 preserveAspectRatio="xMidYMid meet">

<g transform="translate(0.000000,490.000000) scale(0.100000,-0.100000)"
fill="#000000" stroke="none">
<path d="M4059 4089 c-8 -5 -22 -9 -31 -9 -29 0 -109 -57 -135 -95 -13 -19
-28 -35 -32 -35 -13 0 -42 -79 -35 -92 4 -6 3 -8 -3 -5 -6 4 -13 -9 -17 -31
-9 -57 -7 -92 5 -92 6 0 9 -9 6 -20 -3 -13 -1 -18 6 -13 7 4 8 0 3 -12 -8 -23
2 -57 15 -49 6 3 9 -1 7 -9 -4 -21 51 -105 73 -112 11 -4 19 -10 19 -14 0 -4
22 -20 48 -34 78 -42 253 -44 286 -3 15 18 50 30 40 13 -5 -6 11 7 34 31 24
23 48 42 53 42 6 0 9 7 5 15 -3 8 -1 14 5 12 15 -3 51 64 45 86 -2 9 -1 15 4
12 4 -3 10 6 12 20 3 15 1 25 -6 25 -7 0 -6 4 2 9 15 9 8 101 -8 111 -5 3 -8
12 -8 20 1 8 0 26 -1 40 -1 21 -3 22 -11 9 -6 -10 -6 -29 0 -50 15 -51 12
-141 -6 -190 -9 -24 -16 -52 -16 -62 1 -9 -3 -15 -8 -12 -5 3 -14 -5 -21 -17
-16 -30 -45 -54 -102 -84 -173 -90 -369 -16 -438 165 -25 66 -23 176 4 230 9
19 14 38 10 44 -3 6 -1 7 5 3 7 -4 12 -3 12 2 0 4 20 29 45 53 49 50 148 92
214 92 89 0 217 -67 250 -131 7 -12 16 -20 21 -17 6 3 7 0 4 -8 -3 -8 -1 -18
5 -22 20 -11 12 34 -9 55 -11 11 -20 23 -20 26 0 10 -28 34 -40 34 -6 0 -8 5
-5 11 4 6 0 9 -11 7 -12 -2 -18 2 -16 10 1 8 -2 11 -8 7 -5 -3 -10 -2 -10 3 0
11 -22 22 -60 30 -45 9 -167 10 -181 1z"/>
<path d="M4130 4030 c0 -11 5 -20 10 -20 6 0 10 9 10 20 0 11 -4 20 -10 20 -5
0 -10 -9 -10 -20z"/>
<path d="M3942 3958 c2 -6 10 -14 16 -16 7 -2 10 2 6 12 -7 18 -28 22 -22 4z"/>
<path d="M4316 3954 c-4 -10 -1 -14 6 -12 15 5 23 28 10 28 -5 0 -13 -7 -16
-16z"/>
<path d="M4121 3786 c-15 -18 -3 -46 20 -46 25 0 35 26 19 45 -15 19 -24 19
-39 1z"/>
<path d="M3860 3770 c0 -5 7 -10 15 -10 8 0 15 5 15 10 0 6 -7 10 -15 10 -8 0
-15 -4 -15 -10z"/>
<path d="M4390 3770 c0 -5 7 -10 15 -10 8 0 15 5 15 10 0 6 -7 10 -15 10 -8 0
-15 -4 -15 -10z"/>
<path d="M4185 3720 c10 -11 20 -20 23 -20 3 0 -3 9 -13 20 -10 11 -20 20 -23
20 -3 0 3 -9 13 -20z"/>
<path d="M3944 3585 c-9 -22 1 -29 15 -11 8 10 9 16 1 21 -5 3 -13 -1 -16 -10z"/>
<path d="M4320 3575 c7 -9 15 -13 17 -11 7 7 -7 26 -19 26 -6 0 -6 -6 2 -15z"/>
<path d="M4130 3506 c0 -8 5 -18 10 -21 6 -3 10 3 10 14 0 12 -4 21 -10 21 -5
0 -10 -6 -10 -14z"/>
<path d="M3410 2893 c-50 -19 -50 -20 -50 -280 0 -205 2 -243 14 -243 13 0 15
36 18 220 3 213 4 220 26 242 l23 23 438 3 c432 3 438 2 464 -18 l27 -21 0
-280 c0 -266 -1 -280 -20 -299 -19 -19 -33 -20 -426 -20 -383 0 -406 -1 -399
-17 4 -10 10 -26 12 -35 5 -16 20 -18 134 -18 l129 0 0 -45 0 -45 -50 0 c-43
0 -50 -3 -50 -19 0 -11 8 -21 18 -24 9 -2 -13 -2 -50 1 -49 3 -68 1 -68 -7 0
-7 5 -9 12 -5 7 4 8 3 4 -4 -6 -9 6 -44 19 -60 2 -2 32 15 68 37 35 23 68 41
72 41 18 0 125 76 131 93 9 28 55 77 72 77 12 0 13 -3 4 -12 -7 -7 -12 -14
-12 -17 0 -4 36 -6 80 -6 l80 -1 0 28 c0 26 3 28 40 28 38 0 40 -2 40 -30 0
-23 4 -30 20 -30 17 0 20 -7 20 -40 0 -23 5 -40 11 -40 6 0 9 9 6 20 -3 11 -1
20 4 20 5 0 9 -9 9 -20 0 -11 5 -20 11 -20 6 0 8 12 5 33 l-6 32 14 -35 c15
-37 18 -35 18 20 0 30 4 35 26 37 15 0 35 11 45 24 16 21 18 45 15 350 -3 300
-5 330 -21 346 -16 17 -51 18 -490 20 -260 1 -479 -1 -487 -4z m498 -700 c5
-17 -26 -29 -40 -15 -6 6 -7 15 -3 22 9 14 37 9 43 -7z m-265 -203 c-3 -12 -8
-19 -11 -16 -5 6 5 36 12 36 2 0 2 -9 -1 -20z m42 10 c3 -5 1 -10 -4 -10 -6 0
-11 5 -11 10 0 6 2 10 4 10 3 0 8 -4 11 -10z"/>
<path d="M3170 2710 c-58 -4 -108 -8 -113 -9 -21 -3 -47 -69 -47 -118 l0 -53
-271 0 c-174 0 -277 -4 -290 -11 -12 -6 -26 -24 -34 -42 -11 -27 -10 -42 11
-121 14 -50 32 -97 41 -103 10 -8 47 -13 90 -13 71 0 73 -1 73 -25 0 -22 -4
-25 -39 -25 -54 0 -71 -8 -85 -42 -9 -21 -10 -43 -3 -83 7 -39 7 -61 -1 -77
-11 -22 -11 -22 -6 5 l6 27 -156 0 -156 0 0 -60 c0 -55 2 -60 23 -61 12 0 89
-1 170 -1 l148 0 10 -25 c5 -13 9 -35 9 -49 0 -19 -5 -24 -24 -24 -13 0 -27
-6 -29 -12 -4 -10 -6 -10 -6 0 -1 8 -22 12 -71 12 l-70 0 0 -459 0 -460 23 -3
c12 -2 134 -1 270 2 137 3 250 3 252 1 2 -1 35 -5 74 -8 l70 -4 3 146 3 145
-170 1 c-93 0 -248 0 -342 0 -108 -1 -173 3 -173 9 0 6 123 10 340 10 l340 0
1 28 c1 15 0 39 -1 55 -1 19 3 27 14 27 9 0 16 -8 16 -18 0 -29 29 -62 56 -62
23 0 24 -2 24 -80 0 -79 0 -80 25 -80 l25 0 0 -110 0 -110 -128 0 c-125 0
-129 -1 -175 -30 -26 -16 -47 -24 -47 -18 0 8 -3 8 -9 2 -6 -5 -101 -7 -241
-4 -140 3 -235 1 -241 -4 -5 -6 -9 -18 -9 -28 0 -17 16 -18 244 -18 186 0 245
3 249 13 3 6 2 -7 0 -31 l-6 -42 424 2 424 3 -2 30 c-5 61 -68 115 -142 123
-28 2 -51 9 -51 14 0 8 78 291 113 408 l13 45 71 5 c50 4 77 11 92 24 20 18
20 18 26 -5 8 -39 93 -571 97 -609 3 -32 5 -35 36 -34 17 0 83 1 145 3 l112 3
-55 25 c-30 13 -56 25 -57 26 0 1 -31 232 -68 512 -37 281 -74 525 -81 543
-27 67 -134 78 -204 20 -33 -27 -39 -28 -136 -28 l-102 0 -22 56 c-13 30 -28
61 -34 67 -12 13 -51 98 -62 137 -5 18 -13 -15 -25 -108 -9 -73 -19 -136 -23
-139 -3 -4 -6 1 -6 11 0 34 -71 341 -82 354 -28 33 -67 42 -188 42 -113 0
-120 1 -120 20 0 19 7 20 120 20 118 0 120 0 136 26 16 24 16 30 1 92 -10 42
-12 68 -6 71 6 1 19 12 29 23 17 19 18 23 5 42 -21 30 -19 56 5 56 12 0 20 7
20 16 0 9 16 34 36 56 25 28 34 47 32 66 -4 31 -1 31 -138 22z m-312 -492 c-3
-21 -9 -23 -80 -26 -78 -3 -78 -3 -78 23 0 25 1 25 81 25 78 0 80 -1 77 -22z
m-651 -240 c-3 -7 -5 -2 -5 12 0 14 2 19 5 13 2 -7 2 -19 0 -25z m106 -55 c-7
-2 -19 -2 -25 0 -7 3 -2 5 12 5 14 0 19 -2 13 -5z m-60 -10 c-7 -2 -21 -2 -30
0 -10 3 -4 5 12 5 17 0 24 -2 18 -5z m1132 -3 c-3 -5 -12 -10 -18 -10 -7 0 -6
4 3 10 19 12 23 12 15 0z m-808 -252 c-3 -8 -6 -5 -6 6 -1 11 2 17 5 13 3 -3
4 -12 1 -19z m1187 -85 c4 -21 9 -51 12 -66 6 -27 4 -28 -17 -21 -13 4 -38 10
-55 13 l-31 6 13 47 c11 35 20 48 37 51 12 2 25 5 28 6 4 0 10 -16 13 -36z
m-1167 -5 c-3 -8 -6 -5 -6 6 -1 11 2 17 5 13 3 -3 4 -12 1 -19z m-20 -30 c-3
-8 -6 -5 -6 6 -1 11 2 17 5 13 3 -3 4 -12 1 -19z m863 -2 c0 -2 3 -11 6 -20 5
-13 -1 -16 -30 -16 -34 0 -47 15 -29 33 7 8 53 10 53 3z m-870 -36 c0 -6 -42
-10 -105 -10 -63 0 -105 4 -105 10 0 6 42 10 105 10 63 0 105 -4 105 -10z m30
0 c0 -5 -4 -10 -10 -10 -5 0 -10 5 -10 10 0 6 5 10 10 10 6 0 10 -4 10 -10z
m16 -16 c-4 -9 -9 -15 -11 -12 -3 3 -3 13 1 22 4 9 9 15 11 12 3 -3 3 -13 -1
-22z m734 -445 c-28 -112 -53 -206 -56 -208 -2 -2 -4 46 -4 107 l0 112 25 0
c25 0 25 1 25 78 0 74 1 79 25 90 14 6 25 17 25 23 0 7 2 10 5 7 3 -3 -17 -97
-45 -209z m-606 35 c19 -18 21 -65 4 -82 -31 -31 -98 -5 -98 38 0 49 61 78 94
44z"/>
<path d="M4912 2370 c0 -14 2 -19 5 -12 2 6 2 18 0 25 -3 6 -5 1 -5 -13z"/>
<path d="M4567 2343 c-29 -8 -37 -46 -37 -189 l0 -134 -230 0 c-224 0 -230 1
-230 20 0 18 -2 19 -22 8 -13 -7 -51 -37 -86 -65 -35 -29 -73 -60 -85 -68 -29
-20 -13 -31 17 -12 14 10 26 12 28 6 2 -6 243 -10 696 -12 777 -2 704 -10 701
76 l-2 47 -176 3 c-97 1 -215 1 -263 -1 l-88 -3 0 146 c0 184 -1 186 -122 184
-46 -1 -91 -3 -101 -6z m121 -330 c-15 -2 -42 -2 -60 0 -18 2 -6 4 27 4 33 0
48 -2 33 -4z m-181 -19 c-3 -3 -12 -4 -19 -1 -8 3 -5 6 6 6 11 1 17 -2 13 -5z
m-518 -17 c-2 -1 -13 -9 -24 -17 -19 -14 -19 -14 -6 3 7 9 18 17 24 17 6 0 8
-1 6 -3z m1248 -63 c-3 -3 -12 -4 -19 -1 -8 3 -5 6 6 6 11 1 17 -2 13 -5z"/>
<path d="M4913 2265 c0 -38 2 -53 4 -32 2 20 2 52 0 70 -2 17 -4 1 -4 -38z"/>
<path d="M4472 1658 l3 -143 338 -3 c210 -1 337 -6 337 -12 0 -6 -127 -11
-337 -12 l-338 -3 0 -150 0 -150 343 -3 342 -2 0 310 0 310 -345 0 -346 0 3
-142z m402 26 c10 -25 7 -59 -6 -72 -17 -17 -55 -15 -78 5 -22 20 -25 35 -10
64 14 25 85 27 94 3z m-12 -301 c36 -32 15 -93 -32 -93 -60 0 -83 67 -32 94
35 20 42 19 64 -1z"/>
<path d="M4470 1023 l0 -143 335 0 c184 0 338 -1 343 -2 4 -2 8 62 10 142 l3
145 -346 0 -345 0 0 -142z m394 51 c19 -18 21 -65 4 -82 -29 -29 -98 -3 -98
37 0 47 63 77 94 45z"/>
<path d="M4815 780 l-340 -5 -3 -22 -3 -23 345 0 346 0 0 30 c0 17 -1 29 -2
28 -2 -2 -156 -5 -343 -8z"/>
</g>
</svg>
